<svg width="24" height="24" viewBox="0 0 24 24" fill="none" xmlns="http://www.w3.org/2000/svg">
<path d="M11.9999 2C13.7798 2.00002 15.5199 2.52779 16.9999 3.5166C18.4798 4.50543 19.6331 5.91134 20.3143 7.55566C20.9955 9.20008 21.1742 11.0101 20.827 12.7559C20.4798 14.5015 19.6226 16.1056 18.3642 17.3643L14.121 21.6064C13.8427 21.885 13.5121 22.106 13.1483 22.2568C12.7846 22.4076 12.3946 22.4853 12.0009 22.4854C11.6069 22.4854 11.2164 22.4077 10.8524 22.2568C10.5795 22.1437 10.325 21.9915 10.0975 21.8047L9.87978 21.6064L5.63563 17.3643C4.37711 16.1056 3.51999 14.5016 3.17274 12.7559C2.82558 11.0101 3.00427 9.20009 3.68544 7.55566C4.36667 5.91137 5.52001 4.50541 6.99989 3.5166C8.47985 2.52783 10.22 2 11.9999 2ZM11.9999 4C10.6156 4 9.26227 4.41071 8.11122 5.17969C6.96017 5.94878 6.06294 7.04235 5.5331 8.32129C5.00334 9.6002 4.86471 11.0075 5.13466 12.3652C5.40468 13.7229 6.07101 14.9703 7.0497 15.9492L11.2938 20.1924L11.2948 20.1934C11.3873 20.2859 11.4972 20.359 11.6181 20.4092C11.7392 20.4594 11.8697 20.4854 12.0009 20.4854C12.1318 20.4853 12.2617 20.4593 12.3827 20.4092C12.5037 20.359 12.6144 20.286 12.7069 20.1934V20.1924L16.9501 15.9492C17.9287 14.9703 18.5951 13.7228 18.8651 12.3652C19.1351 11.0075 18.9964 9.60019 18.4667 8.32129C17.9369 7.04232 17.0396 5.9488 15.8886 5.17969C14.7375 4.41066 13.3842 4.00002 11.9999 4ZM11.9999 7C13.0607 7.00003 14.0779 7.42176 14.828 8.17188C15.5781 8.92202 15.9999 9.93916 15.9999 11C15.9999 12.0608 15.5781 13.078 14.828 13.8281C14.0779 14.5782 13.0607 15 11.9999 15C10.9391 15 9.92191 14.5782 9.17177 13.8281C8.42162 13.078 7.99989 12.0609 7.99989 11C7.99989 9.93913 8.42162 8.92202 9.17177 8.17188C9.92191 7.42176 10.9391 7 11.9999 7ZM11.9999 9C11.4695 9 10.9609 9.2109 10.5858 9.58594C10.2108 9.96101 9.99989 10.4696 9.99989 11C9.99989 11.5304 10.2108 12.039 10.5858 12.4141C10.9609 12.7891 11.4695 13 11.9999 13C12.5303 13 13.0389 12.7891 13.414 12.4141C13.789 12.039 13.9999 11.5304 13.9999 11C13.9999 10.4696 13.789 9.961 13.414 9.58594C13.0389 9.21089 12.5303 9.00003 11.9999 9Z" fill="#D4A84F"/>
</svg>
